/vscmnt/brussel_pixiu_data/_data_brussel/112/vsc11236/PredSimResults/SUBJ10opt3D/trackIG/worker_01.mot
version=1
nRows=7
nColumns=50
inDegrees=yes
endheader
                time	         pelvis_tilt	         pelvis_list	     pelvis_rotation	           pelvis_tx	           pelvis_ty	           pelvis_tz	       hip_flexion_r	     hip_adduction_r	      hip_rotation_r	        knee_angle_r	       ankle_angle_r	         mtp_angle_r	       hip_flexion_l	     hip_adduction_l	      hip_rotation_l	        knee_angle_l	       ankle_angle_l	         mtp_angle_l	    lumbar_extension	      lumbar_bending	     lumbar_rotation	 ercspn_r/activation	 intobl_r/activation	 extobl_r/activation	    abd_r/activation	    add_r/activation	hamstrings_r/activation	bifemsh_r/activation	glut_max_r/activation	iliopsoas_r/activation	rect_fem_r/activation	  vasti_r/activation	gastroc_r/activation	 soleus_r/activation	tib_ant_r/activation	 ercspn_l/activation	 intobl_l/activation	 extobl_l/activation	    abd_l/activation	    add_l/activation	hamstrings_l/activation	bifemsh_l/activation	glut_max_l/activation	iliopsoas_l/activation	rect_fem_l/activation	  vasti_l/activation	gastroc_l/activation	 soleus_l/activation	tib_ant_l/activation	
          1.56305132	          0.24645230	         -3.09431864	         10.39498628	          0.93783079	          0.84688071	         -0.02394069	         21.26508274	          0.65608015	         -4.21023643	        -10.34176082	          0.71879462	          0.23534294	        -13.14207240	         -3.61415731	          0.00756536	         -5.59765672	         12.34620718	         15.69342255	         -4.04327474	         -1.08809177	         -3.44448683	          0.10883314	          0.15920023	          0.00999999	          0.00999999	          0.14702278	          0.07026138	          0.11165304	          0.01000014	          0.06869406	          0.00999999	          0.00999999	          0.01360290	          0.01000001	          0.20141619	          0.04715350	          0.00999999	          0.00999999	          0.08794814	          0.00999999	          0.01000003	          0.19262270	          0.00999999	          0.22447258	          0.00999999	          0.00999999	          0.22012677	          0.20416537	          0.02089987	
          1.57868184	          0.16663791	         -2.95125359	          9.86766691	          0.94954906	          0.84536230	         -0.02214900	         20.76274085	          0.89427296	         -3.95127982	        -10.72224208	          0.59901437	          0.23358249	        -13.33126745	         -3.51037803	         -1.02071081	         -6.81844399	         12.37693448	         16.94398022	         -3.78714289	         -0.70075477	         -3.81349117	          0.10099322	          0.16946998	          0.00999999	          0.00999999	          0.14621389	          0.06341743	          0.08857777	          0.01032943	          0.05449710	          0.00999999	          0.00999999	          0.01079160	          0.00999999	          0.22944286	          0.05886487	          0.00999999	          0.00999999	          0.07190892	          0.00999999	          0.01000003	          0.15281348	          0.00999999	          0.17808096	          0.00999999	          0.00999999	          0.20864412	          0.21066534	          0.01658051	
          1.59431235	          0.09152228	         -2.82969421	          9.27596646	          0.96149123	          0.84411159	         -0.02021906	         20.28592477	          1.13430269	         -3.70803425	        -11.09659359	          0.34376240	          0.22961806	        -13.47736822	         -3.42983747	         -2.09273411	         -8.14318087	         12.24630431	         18.24978985	         -3.51399723	         -0.25251323	         -4.17951330	          0.09620140	          0.15706588	          0.00999999	          0.00999999	          0.13245848	          0.06521921	          0.07027146	          0.00999999	          0.04323421	          0.00999999	          0.02517259	          0.00999999	          0.00999999	          0.25903175	          0.06686490	          0.00999999	          0.00999999	          0.05892704	          0.00999999	          0.01000013	          0.12123161	          0.00999999	          0.14127708	          0.01000000	          0.00999999	          0.19310900	          0.21195218	          0.01315382	
          1.60994286	          0.02129259	         -2.73074992	          8.62052927	          0.97357666	          0.84328434	         -0.01814525	         19.85274142	          1.38275604	         -3.54743721	        -11.53572341	          0.10150784	          0.22276200	        -13.53643467	         -3.37882977	         -3.19644219	         -9.63424400	         11.91982343	         19.59439220	         -3.23239482	          0.25268658	         -4.53965081	          0.08683759	          0.12951921	          0.00999999	          0.00999999	          0.10508338	          0.07060092	          0.05574850	          0.00999999	          0.03429903	          0.00999999	          0.04835777	          0.00999999	          0.00999999	          0.27536736	          0.07264816	          0.00999999	          0.00999999	          0.04674862	          0.00999999	          0.01425347	          0.09617675	          0.01000200	          0.11207943	          0.01000000	          0.00999999	          0.17386787	          0.20733162	          0.01043533	
          1.62557338	         -0.04406571	         -2.65191454	          7.91134690	          0.98574753	          0.84303295	         -0.01592262	         19.40797286	          1.64618694	         -3.44683894	        -11.97713929	          0.03329254	          0.22047409	        -13.45428130	         -3.36565247	         -4.31979836	        -11.37109322	         11.36153270	         20.95481453	         -2.94687634	          0.79957109	         -4.89028334	          0.08061074	          0.10275156	          0.00999999	          0.01605353	          0.08336587	          0.07381435	          0.04422699	          0.01610590	          0.02721047	          0.00999999	          0.06183455	          0.00999999	          0.00999999	          0.27287543	          0.08618948	          0.00999999	          0.00999999	          0.03708711	          0.00999999	          0.01478481	          0.07629996	          0.01705511	          0.08891604	          0.00999999	          0.00999999	          0.14822300	          0.19765739	          0.00999999	
          1.64120389	         -0.10402089	         -2.58412429	          7.16327936	          0.99795295	          0.84344834	         -0.01355916	         18.90111477	          1.92515525	         -3.34123498	        -12.35694131	          0.20604085	          0.25591261	        -13.19553905	         -3.39190418	         -5.48671158	        -13.39893858	         10.54774559	         22.27801725	         -2.65900542	          1.36518857	         -5.23239336	          0.08144768	          0.08151595	          0.00999999	          0.02711185	          0.06613673	          0.07665677	          0.03508663	          0.02239302	          0.02158690	          0.00999999	          0.06080505	          0.00999999	          0.00999999	          0.25098984	          0.09774504	          0.00999999	          0.00999999	          0.02942234	          0.01000001	          0.01988488	          0.06053109	          0.02673799	          0.07053981	          0.00999999	          0.01000000	          0.11758984	          0.18215450	          0.00999999	
          1.65683440	         -0.15780452	         -2.50974309	          6.38984417	          1.01014213	          0.84449028	         -0.01108625	         18.31575715	          2.20684470	         -3.16468145	        -12.64721199	          0.58428166	          0.35311673	        -12.75273678	         -3.44927866	         -6.71598470	        -15.71941163	          9.49882638	         23.45766084	         -2.37094210	          1.92423038	         -5.56639454	          0.07701375	          0.06466910	          0.00999999	          0.02991147	          0.06880357	          0.08174988	          0.02783530	          0.02849657	          0.01712554	          0.00999999	          0.06049219	          0.00999999	          0.00999999	          0.22351133	          0.09862906	          0.00999999	          0.00999999	          0.02334164	          0.04342557	          0.03480540	          0.04802117	          0.02434318	          0.05596139	          0.00999999	          0.01298566	          0.09328762	          0.16304282	          0.00999999	
